<?xml version="1.0" encoding="UTF-8" standalone="no"?>
<svg
   xmlns:dc="http://purl.org/dc/elements/1.1/"
   xmlns:cc="http://creativecommons.org/ns#"
   xmlns:rdf="http://www.w3.org/1999/02/22-rdf-syntax-ns#"
   xmlns:svg="http://www.w3.org/2000/svg"
   xmlns="http://www.w3.org/2000/svg"
   xmlns:sodipodi="http://sodipodi.sourceforge.net/DTD/sodipodi-0.dtd"
   xmlns:inkscape="http://www.inkscape.org/namespaces/inkscape"
   version="1.1"
   width="36"
   height="36"
   viewBox="0 0 36 36"
   preserveAspectRatio="xMidYMid meet"
   id="svg3761"
   sodipodi:docname="line-chart-line.svg"
   inkscape:version="0.92.2 5c3e80d, 2017-08-06">
  <metadata
     id="metadata3767">
    <rdf:RDF>
      <cc:Work
         rdf:about="">
        <dc:format>image/svg+xml</dc:format>
        <dc:type
           rdf:resource="http://purl.org/dc/dcmitype/StillImage" />
        <dc:title>line-chart-line</dc:title>
      </cc:Work>
    </rdf:RDF>
  </metadata>
  <defs
     id="defs3765" />
  <sodipodi:namedview
     pagecolor="#ffffff"
     bordercolor="#666666"
     borderopacity="1"
     objecttolerance="10"
     gridtolerance="10"
     guidetolerance="10"
     inkscape:pageopacity="0"
     inkscape:pageshadow="2"
     inkscape:window-width="1679"
     inkscape:window-height="1006"
     id="namedview3763"
     showgrid="false"
     inkscape:zoom="22"
     inkscape:cx="9.8636364"
     inkscape:cy="18"
     inkscape:window-x="0"
     inkscape:window-y="0"
     inkscape:window-maximized="0"
     inkscape:current-layer="svg3761" />
  <title
     id="title3753">line-chart-line</title>
  <path
     class="clr-i-outline clr-i-outline-path-1"
     d="M 32 5 L 4 5 C 2.895 5 2 5.895 2 7 L 2 29 C 2 30.105 2.895 31 4 31 L 32 31 C 33.105 31 34 30.105 34 29 L 34 7 C 34 5.895 33.105 5 32 5 Z M 4 29 L 4 7 L 32 7 L 32 29 Z"
     id="path3755" />
  <polygon
     points="15.62 15.222 9.602 23.968 5.55 20.384 6.61 19.186 9.308 21.572 15.634 12.38 22.384 22.395 29.138 13.47 30.414 14.436 22.308 25.145"
     class="clr-i-outline clr-i-outline-path-2"
     id="polygon3757" />
  <rect
     x="0"
     y="0"
     width="36"
     height="36"
     fill-opacity="0"
     id="rect3759" />
  <path
     style="fill:#d4aa00;stroke-width:0.04545455"
     d="m 18.977205,20.161665 c -1.820746,-2.701084 -3.325565,-4.920405 -3.344041,-4.931824 -0.01848,-0.01142 -1.377208,1.93265 -3.019405,4.320153 -1.642196,2.387503 -3.0033607,4.340915 -3.0248096,4.340915 -0.021449,0 -0.9303858,-0.788657 -2.0198598,-1.752572 L 5.5882278,20.385765 5.7372957,20.214104 c 0.081987,-0.09441 0.3125694,-0.358353 0.5124046,-0.586531 l 0.3633366,-0.414868 0.1366634,0.127554 c 0.4329367,0.404079 2.527363,2.23232 2.5564626,2.231556 0.01911,-5.02e-4 1.4461101,-2.055431 3.1711101,-4.56651 1.725,-2.511078 3.146591,-4.565251 3.159091,-4.56483 0.0125,4.21e-4 1.526136,2.238509 3.363636,4.973528 1.8375,2.73502 3.361364,4.972495 3.386364,4.972167 0.025,-3.18e-4 1.548863,-1.993235 3.386363,-4.428684 1.8375,-2.435448 3.362491,-4.423452 3.388868,-4.417787 0.105918,0.02275 1.19647,0.877495 1.180622,0.92534 -0.02423,0.07314 -7.995734,10.605109 -8.027936,10.606521 -0.01465,6.41e-4 -1.51633,-2.208811 -3.337076,-4.909895 z"
     id="path3769"
     inkscape:connector-curvature="0" />
  <path
     style="fill:#0195d3;stroke-width:0.04545455;fill-opacity:1"
     d="M 3.504756,30.909885 C 3.1354815,30.810582 2.8377521,30.628743 2.5688131,30.338257 2.2647201,30.0098 2.1005651,29.666276 2.0456425,29.243427 1.9878078,28.798158 1.988147,7.208353 2.0459957,6.7628508 2.1349579,6.0777384 2.5433764,5.5207561 3.1818182,5.2138688 L 3.5227273,5.05 H 18 32.477273 l 0.340909,0.1638688 c 0.658528,0.3165425 1.051265,0.8666162 1.13921,1.5955962 0.0295,0.2445395 0.04098,4.2718 0.03268,11.467808 l -0.01279,11.090909 -0.09956,0.260594 c -0.251087,0.65721 -0.751781,1.113996 -1.408604,1.285077 -0.388623,0.101223 -28.5875489,0.09736 -28.964353,-0.004 z M 32,18.004545 V 6.9818182 H 18 4 V 18.004545 29.027273 h 14 14 z"
     id="path19"
     inkscape:connector-curvature="0" />
  <path
     style="fill:#f38b01;stroke-width:0.04545455;fill-opacity:0.00392157"
     d="M 21.599971,23.999278 C 21.210876,23.427175 19.749775,21.270373 18.35308,19.206385 16.956386,17.142396 15.771144,15.396128 15.719209,15.325788 l -0.09443,-0.12789 -0.479329,0.676051 c -0.26363,0.371828 -1.476982,2.118096 -2.696337,3.880596 C 9.7203362,23.69882 9.6107421,23.853809 9.5626589,23.836602 9.519454,23.821141 8.8014557,23.195745 6.8950747,21.513065 l -1.2821979,-1.13174 0.4867434,-0.559651 c 0.2677089,-0.307809 0.5009553,-0.55622 0.5183255,-0.552027 0.01737,0.0042 0.3446428,0.286055 0.7272727,0.626358 1.0193035,0.906547 1.9169076,1.676722 1.9541423,1.676722 0.046104,0 0.2779149,-0.330991 3.2789323,-4.681818 1.474358,-2.1375 2.764118,-4.004911 2.866135,-4.149801 l 0.185485,-0.263438 0.09186,0.124807 c 0.05052,0.06864 0.65193,0.954236 1.336459,1.967983 5.241967,7.76305 5.278813,7.817107 5.329714,7.81924 0.03772,0.0016 0.868478,-1.078574 3.495031,-4.544245 2.648272,-3.494331 3.235438,-4.25 3.302307,-4.25 0.02871,0 0.298998,0.190897 0.600644,0.424217 l 0.548447,0.424217 -0.256402,0.34851 c -0.67331,0.915184 -7.29373,9.654841 -7.631084,10.07384 l -0.139473,0.173227 z"
     id="path4515"
     inkscape:connector-curvature="0" />
  <path
     style="fill:#f38b01;fill-opacity:1;stroke-width:0.04545455"
     d="m 21.781188,24.265909 c -0.286328,-0.41875 -1.101232,-1.620454 -1.810899,-2.670454 -2.302988,-3.407428 -4.154486,-6.137879 -4.251223,-6.269386 l -0.09457,-0.128562 -0.382702,0.539136 c -0.210487,0.296525 -1.51793,2.178005 -2.90543,4.181066 -1.3875,2.003062 -2.5762888,3.711097 -2.6417524,3.795635 L 9.5755869,23.867048 9.2627934,23.595201 C 9.090757,23.445685 8.1989169,22.661659 7.2809265,21.85292 L 5.611853,20.382486 6.0991083,19.822254 c 0.2679904,-0.308128 0.5014672,-0.5568 0.5188374,-0.552607 0.01737,0.0042 0.3446428,0.286055 0.7272727,0.626358 1.0193035,0.906547 1.9169076,1.676722 1.9541423,1.676722 0.046159,0 0.2768372,-0.329406 3.3104403,-4.727272 1.491671,-2.1625 2.781203,-4.029723 2.865627,-4.149385 l 0.153499,-0.217566 0.0796,0.10393 c 0.04378,0.05716 0.769433,1.126657 1.612566,2.376657 4.432385,6.571301 5.016991,7.428536 5.067428,7.430609 0.03896,0.0016 0.934702,-1.165345 3.994047,-5.203336 1.875572,-2.475547 2.704174,-3.549002 2.771681,-3.590724 0.0417,-0.02577 0.652547,0.409973 1.033547,0.737271 l 0.146883,0.12618 -1.164406,1.545454 c -3.034994,4.028185 -6.829863,9.022728 -6.855496,9.022728 -0.0071,0 -0.247258,-0.342614 -0.533586,-0.761364 z"
     id="path4517"
     inkscape:connector-curvature="0" />
</svg>
